<svg xmlns="http://www.w3.org/2000/svg" width="1400" height="900" viewBox="0 0 1400 900">
<rect width="1400" height="900" fill="#f7faf7"/>
<g opacity=".16" stroke="#5caf59" fill="none">
<path d="M700 760 C910 520 1160 480 1420 300" stroke-width="2"/>
<path d="M760 820 C940 560 1120 540 1400 420" stroke-width="1.5"/>
<path d="M780 700 C980 640 1120 610 1400 560" stroke-width="1.5"/>
</g>
<g opacity=".22" fill="#5caf59">
<rect x="730" y="610" width="520" height="18" transform="skewX(-20)"/>
<rect x="780" y="565" width="520" height="14" transform="skewX(-20)"/>
<rect x="830" y="520" width="520" height="10" transform="skewX(-20)"/>
</g>
<g opacity=".18" stroke="#10232d" stroke-width="6">
<line x1="920" y1="330" x2="920" y2="650"/>
<line x1="920" y1="330" x2="830" y2="265"/>
<line x1="920" y1="330" x2="1015" y2="280"/>
<line x1="920" y1="330" x2="925" y2="220"/>
<line x1="1160" y1="260" x2="1160" y2="600"/>
<line x1="1160" y1="260" x2="1065" y2="210"/>
<line x1="1160" y1="260" x2="1255" y2="205"/>
<line x1="1160" y1="260" x2="1164" y2="150"/>
</g>
<path d="M0 780 C330 660 520 690 750 560 C980 430 1120 380 1400 340 L1400 900 L0 900Z" fill="#5caf59" opacity=".09"/>
</svg>